<?xml version="1.0" encoding="utf-8"?>
<!-- Generator: Adobe Illustrator 18.1.1, SVG Export Plug-In . SVG Version: 6.00 Build 0)  -->
<svg version="1.1" id="Layer_1" xmlns="http://www.w3.org/2000/svg" xmlns:xlink="http://www.w3.org/1999/xlink" x="0px" y="0px"
	 viewBox="-487 489 24 24" enable-background="new -487 489 24 24" xml:space="preserve">
<path fill="#FFFFFF" d="M-467,501c0,4.4-3.6,8-8,8s-8-3.6-8-8s3.6-8,8-8c0.8,0,1.5,0.1,2.2,0.3l1.6-1.6c-1.2-0.5-2.4-0.7-3.8-0.7
	c-5.5,0-10,4.5-10,10s4.5,10,10,10s10-4.5,10-10 M-479.1,499.1l-1.4,1.4l4.5,4.5l10-10l-1.4-1.4l-8.6,8.6L-479.1,499.1z"/>
</svg>
