<?xml version="1.0" encoding="utf-8"?>
<!-- Generator: Adobe Illustrator 18.1.1, SVG Export Plug-In . SVG Version: 6.00 Build 0)  -->
<svg version="1.1" id="Layer_1" xmlns="http://www.w3.org/2000/svg" xmlns:xlink="http://www.w3.org/1999/xlink" x="0px" y="0px"
	 viewBox="-487 489 24 24" enable-background="new -487 489 24 24" xml:space="preserve">
<path fill="#FFFFFF" d="M-469,505.1c-0.8,0-1.4,0.3-2,0.8l-7.1-4.1c0-0.2,0.1-0.5,0.1-0.7s0-0.5-0.1-0.7l7-4.1
	c0.5,0.5,1.2,0.8,2,0.8c1.7,0,3-1.3,3-3s-1.3-3-3-3s-3,1.3-3,3c0,0.2,0,0.5,0.1,0.7l-7,4.1c-0.5-0.5-1.2-0.8-2-0.8c-1.7,0-3,1.3-3,3
	s1.3,3,3,3c0.8,0,1.5-0.3,2-0.8l7.1,4.1c-0.1,0.2-0.1,0.4-0.1,0.7c0,1.6,1.3,2.9,2.9,2.9s2.9-1.3,2.9-2.9
	C-466.1,506.4-467.4,505.1-469,505.1z"/>
</svg>
