<?xml version="1.0" encoding="utf-8"?>
<!-- Generator: Adobe Illustrator 18.1.1, SVG Export Plug-In . SVG Version: 6.00 Build 0)  -->
<svg version="1.1" id="Layer_1" xmlns="http://www.w3.org/2000/svg" xmlns:xlink="http://www.w3.org/1999/xlink" x="0px" y="0px"
	 viewBox="-487 489 24 24" enable-background="new -487 489 24 24" xml:space="preserve">
<path fill="#FFFFFF" d="M-467,505v-6h2v6c0,1.1-0.9,2-2,2h-12c-1.1,0-2-0.9-2-2v-12c0-1.1,0.9-2,2-2h8v2h-8v12H-467 M-476.1,496.1
	l3.1,3.1l6.6-6.6l1.4,1.4l-8,8l-4.5-4.5L-476.1,496.1 M-471,509v2h-12c-1.1,0-2-0.9-2-2v-13h2v13H-471z"/>
</svg>
