<?xml version="1.0" encoding="utf-8"?>
<!-- Generator: Adobe Illustrator 18.1.1, SVG Export Plug-In . SVG Version: 6.00 Build 0)  -->
<svg version="1.1" id="Layer_1" xmlns="http://www.w3.org/2000/svg" xmlns:xlink="http://www.w3.org/1999/xlink" x="0px" y="0px"
	 viewBox="-487 489 24 24" enable-background="new -487 489 24 24" xml:space="preserve">
<path fill="#FFFFFF" d="M-469,505h-12v-0.9c0-2,4-3.1,6-3.1s6,1.1,6,3.1 M-475,494.3c1.5,0,2.7,1.2,2.7,2.7s-1.2,2.7-2.7,2.7
	s-2.7-1.2-2.7-2.7S-476.5,494.3-475,494.3 M-468,491h-14c-1.1,0-2,0.9-2,2v14c0,1.1,0.9,2,2,2h4l3,3l3-3h4c1.1,0,2-0.9,2-2v-14
	C-466,491.9-466.9,491-468,491z"/>
</svg>
