<?xml version="1.0" encoding="utf-8"?>
<!-- Generator: Adobe Illustrator 18.1.1, SVG Export Plug-In . SVG Version: 6.00 Build 0)  -->
<svg version="1.1" id="Layer_1" xmlns="http://www.w3.org/2000/svg" xmlns:xlink="http://www.w3.org/1999/xlink" x="0px" y="0px"
	 viewBox="0 0 44 72.2" enable-background="new 0 0 44 72.2" xml:space="preserve">
<g>
	<line fill="#FFFFFF" x1="38.7" y1="0" x2="40.7" y2="0"/>
	<path fill="#FFFFFF" d="M38.7,0H5.3C2.4,0,0,2.4,0,5.3v61.6c0,2.9,2.4,5.3,5.3,5.3h33.3c2.9,0,5.3-2.4,5.3-5.3V5.3
		C44,2.4,41.6,0,38.7,0z M22,68.7c-1.9,0-3.4-1.5-3.4-3.4c0-1.9,1.5-3.4,3.4-3.4s3.4,1.5,3.4,3.4C25.4,67.1,23.9,68.7,22,68.7z
		 M40,58.2H4V14h36V58.2z"/>
</g>
</svg>
