<?xml version="1.0" encoding="utf-8"?>
<!-- Generator: Adobe Illustrator 18.1.1, SVG Export Plug-In . SVG Version: 6.00 Build 0)  -->
<svg version="1.1" id="Layer_1" xmlns="http://www.w3.org/2000/svg" xmlns:xlink="http://www.w3.org/1999/xlink" x="0px" y="0px"
	 viewBox="0 0 143.3 112.5" enable-background="new 0 0 143.3 112.5" xml:space="preserve">
<g>
	<g>
		<g>
			<polygon fill="#FFFFFF" points="37.3,57.8 0.3,11.9 6,0 65.8,0 58.8,14.4 21.2,14.6 44.1,43.4 			"/>
		</g>
		<g>
			<polygon fill="#FFFFFF" points="126.4,57.8 61.1,57.8 67.6,44.5 110,44.5 83,14.4 89.6,1.2 131.8,46.9 			"/>
		</g>
		<g>
			<polygon fill="#50C7EB" points="57.1,57.8 41.1,57.8 70.1,0 86.7,0 			"/>
		</g>
	</g>
	<g>
		<g>
			<path fill="#FFFFFF" d="M20.4,100.8c0,1.8-0.3,3.3-0.8,4.7c-0.5,1.4-1.3,2.6-2.2,3.6c-1,1-2.2,1.8-3.6,2.3
				c-1.4,0.5-3,0.8-4.8,0.8c-0.7,0-1.5,0-2.4-0.1c-0.8-0.1-1.6-0.2-2.4-0.3c-0.8-0.1-1.5-0.2-2.3-0.4c-0.7-0.2-1.4-0.3-1.9-0.5V80.4
				l6.2-1v10.9c0.7-0.3,1.4-0.5,2.2-0.7c0.7-0.2,1.6-0.2,2.4-0.2c1.6,0,2.9,0.3,4.1,0.8c1.2,0.5,2.2,1.3,3,2.3
				c0.8,1,1.4,2.2,1.8,3.6C20.2,97.5,20.4,99.1,20.4,100.8z M14,100.6c0-4-1.5-6-4.4-6c-0.6,0-1.3,0.1-1.9,0.3
				c-0.6,0.2-1.1,0.4-1.5,0.6v11.3c0.3,0.1,0.7,0.1,1.2,0.1c0.5,0,1,0.1,1.5,0.1c1.7,0,3-0.6,3.8-1.7C13.6,104.1,14,102.5,14,100.6z
				"/>
			<path fill="#FFFFFF" d="M30.8,112.2c-1.8,0-3.3-0.2-4.4-0.6c-1.1-0.4-2-0.9-2.7-1.5c-0.7-0.7-1.1-1.4-1.3-2.4
				c-0.2-0.9-0.4-2-0.4-3.1V80.4l6.2-1v23.9c0,0.6,0,1.1,0.1,1.5c0.1,0.4,0.2,0.8,0.5,1.1c0.2,0.3,0.6,0.6,1,0.8
				c0.4,0.2,1,0.3,1.8,0.4L30.8,112.2z"/>
			<path fill="#FFFFFF" d="M50.8,111c-1.1,0.3-2.4,0.6-4.1,0.9c-1.7,0.3-3.4,0.4-5.2,0.4c-1.9,0-3.4-0.3-4.6-0.7
				c-1.2-0.5-2.2-1.2-2.9-2.1c-0.7-0.9-1.2-2-1.5-3.2c-0.3-1.3-0.5-2.6-0.5-4.1V89.8h6.2v11.5c0,2,0.3,3.4,0.8,4.3
				c0.5,0.9,1.5,1.3,3,1.3c0.4,0,0.9,0,1.4-0.1c0.5,0,0.9-0.1,1.3-0.1V89.8h6.2V111z"/>
			<path fill="#FFFFFF" d="M52.4,101c0-1.9,0.3-3.6,0.9-5.1c0.6-1.5,1.4-2.7,2.4-3.6c1-1,2.1-1.7,3.4-2.2c1.3-0.5,2.6-0.7,3.9-0.7
				c3.1,0,5.6,1,7.4,2.9c1.8,1.9,2.7,4.7,2.7,8.4c0,0.4,0,0.8,0,1.2c0,0.4-0.1,0.8-0.1,1.1H58.8c0.1,1.3,0.7,2.3,1.8,3
				c1.1,0.8,2.5,1.1,4.2,1.1c1.1,0,2.3-0.1,3.4-0.3c1.1-0.2,2-0.5,2.7-0.8l0.8,5c-0.3,0.2-0.8,0.3-1.3,0.5c-0.6,0.2-1.2,0.3-1.9,0.4
				c-0.7,0.1-1.4,0.2-2.2,0.3c-0.8,0.1-1.6,0.1-2.3,0.1c-2,0-3.7-0.3-5.1-0.9c-1.5-0.6-2.7-1.4-3.6-2.4c-1-1-1.7-2.2-2.1-3.6
				C52.7,104.1,52.4,102.6,52.4,101z M67,98.6c0-0.5-0.1-1-0.3-1.5c-0.2-0.5-0.4-0.9-0.7-1.3c-0.3-0.4-0.7-0.7-1.2-1
				c-0.5-0.2-1.1-0.4-1.8-0.4c-0.7,0-1.3,0.1-1.8,0.4c-0.5,0.2-0.9,0.5-1.2,0.9c-0.3,0.4-0.6,0.8-0.8,1.4c-0.2,0.5-0.3,1-0.4,1.6H67
				z"/>
			<path fill="#FFFFFF" d="M81.6,112.2c-2.4-0.1-4.1-0.6-5.1-1.5c-1-1-1.5-2.5-1.5-4.5v-26l3.9-0.7v26c0,0.6,0.1,1.2,0.2,1.6
				c0.1,0.4,0.3,0.8,0.5,1c0.3,0.3,0.6,0.4,1,0.6c0.4,0.1,0.9,0.2,1.5,0.3L81.6,112.2z"/>
			<path fill="#FFFFFF" d="M85.3,86.2c-0.7,0-1.3-0.2-1.8-0.7c-0.5-0.5-0.7-1.1-0.7-1.9c0-0.8,0.2-1.4,0.7-1.9
				c0.5-0.5,1.1-0.7,1.8-0.7c0.7,0,1.3,0.2,1.8,0.7c0.5,0.5,0.7,1.1,0.7,1.9c0,0.8-0.2,1.4-0.7,1.9C86.6,85.9,86,86.2,85.3,86.2z
				 M87.2,111.7h-3.9V90.1h3.9V111.7z"/>
			<path fill="#FFFFFF" d="M90.8,90.7c0.9-0.2,2.1-0.5,3.5-0.7c1.5-0.2,3.2-0.4,5.1-0.4c1.7,0,3.2,0.2,4.3,0.7c1.1,0.5,2,1.2,2.7,2
				c0.7,0.9,1.2,1.9,1.4,3.1c0.3,1.2,0.4,2.6,0.4,4v12.2h-3.9v-11.3c0-1.3-0.1-2.5-0.3-3.4c-0.2-0.9-0.5-1.7-0.9-2.3
				c-0.4-0.6-1-1-1.7-1.3C100.9,93.2,100,93,99,93c-0.4,0-0.8,0-1.3,0c-0.4,0-0.9,0.1-1.3,0.1c-0.4,0-0.8,0.1-1.1,0.1
				c-0.3,0.1-0.5,0.1-0.7,0.1v18.3h-3.9V90.7z"/>
			<path fill="#FFFFFF" d="M110.3,101c0-1.9,0.3-3.6,0.8-5c0.6-1.4,1.3-2.6,2.2-3.6c0.9-0.9,2-1.7,3.2-2.1c1.2-0.5,2.4-0.7,3.7-0.7
				c2.9,0,5.2,0.9,6.7,2.7c1.6,1.8,2.3,4.6,2.3,8.3c0,0.2,0,0.4,0,0.6c0,0.3,0,0.5,0,0.7h-14.8c0.2,2.2,0.8,4,2,5.1
				c1.1,1.2,2.9,1.8,5.3,1.8c1.4,0,2.5-0.1,3.4-0.4c0.9-0.2,1.6-0.5,2.1-0.7l0.5,3.2c-0.5,0.3-1.3,0.5-2.5,0.8
				c-1.2,0.3-2.5,0.4-4,0.4c-1.9,0-3.5-0.3-4.9-0.9c-1.4-0.6-2.5-1.4-3.4-2.4c-0.9-1-1.5-2.2-2-3.6
				C110.6,104.1,110.3,102.6,110.3,101z M125.2,98.8c0-1.7-0.4-3.2-1.3-4.3c-0.9-1.1-2.1-1.7-3.7-1.7c-0.9,0-1.7,0.2-2.4,0.5
				c-0.7,0.3-1.3,0.8-1.7,1.4c-0.5,0.6-0.8,1.2-1.1,1.9c-0.3,0.7-0.4,1.5-0.5,2.2H125.2z"/>
		</g>
		<g>
			<path fill="#FFFFFF" d="M131.1,90.7c0-0.9,0.2-1.5,0.6-1.9c0.4-0.4,0.9-0.6,1.7-0.6h9.7l0.2,1.4h-9.7c-0.2,0-0.4,0-0.6,0.1
				c-0.2,0-0.3,0.1-0.4,0.2c-0.1,0.1-0.2,0.2-0.2,0.4c0,0.2-0.1,0.3-0.1,0.6L131.1,90.7z"/>
			<path fill="#FFFFFF" d="M139.5,94.3c0,0.6-0.1,1.1-0.2,1.5c-0.1,0.4-0.4,0.7-0.6,1c-0.3,0.2-0.6,0.4-1,0.5
				c-0.4,0.1-0.8,0.2-1.3,0.2h-5c0-0.1,0-0.3-0.1-0.5c0-0.2-0.1-0.5-0.1-0.8c0-0.3-0.1-0.6-0.1-0.9c0-0.3,0-0.6,0-1
				c0-0.5,0-0.9,0.1-1.3c0.1-0.4,0.2-0.7,0.4-1c0.2-0.3,0.5-0.5,0.8-0.7c0.3-0.2,0.7-0.2,1.2-0.2c0.4,0,0.8,0.1,1.1,0.3
				c0.3,0.2,0.6,0.4,0.8,0.7c0.2,0.3,0.3,0.7,0.4,1.1c0.1,0.4,0.1,0.8,0.1,1.3c0,0.1,0,0.3,0,0.5c0,0.2,0,0.3-0.1,0.4
				c0,0.1,0,0.3-0.1,0.4c0,0.1,0,0.2,0,0.2h0.4c0.2,0,0.5,0,0.7-0.1c0.2-0.1,0.4-0.1,0.6-0.3c0.2-0.1,0.3-0.3,0.4-0.6
				c0.1-0.2,0.2-0.5,0.2-0.9c0-0.5,0-0.9-0.1-1.2c-0.1-0.4-0.1-0.6-0.2-0.8l1.2-0.2c0.1,0.2,0.2,0.5,0.2,0.9
				C139.5,93.3,139.5,93.8,139.5,94.3z M132.3,94.4c0,0.3,0,0.6,0,0.9c0,0.3,0,0.5,0.1,0.7h2.4c0.1-0.1,0.1-0.3,0.1-0.5
				c0-0.2,0.1-0.5,0.1-0.8c0-0.2,0-0.4,0-0.7c0-0.2-0.1-0.5-0.2-0.7c-0.1-0.2-0.2-0.4-0.4-0.5c-0.2-0.1-0.4-0.2-0.7-0.2
				c-0.5,0-0.9,0.2-1.1,0.5C132.4,93.4,132.3,93.9,132.3,94.4z"/>
			<path fill="#FFFFFF" d="M139,100.5c0.1,0.2,0.2,0.4,0.4,0.8c0.1,0.4,0.2,0.8,0.2,1.2c0,0.6-0.1,1.1-0.3,1.5
				c-0.2,0.5-0.5,0.8-0.9,1.1c-0.4,0.3-0.8,0.5-1.3,0.7c-0.5,0.2-1.1,0.2-1.7,0.2c-0.7,0-1.2-0.1-1.8-0.3c-0.5-0.2-1-0.5-1.3-0.8
				c-0.4-0.4-0.6-0.8-0.8-1.3c-0.2-0.5-0.3-1.1-0.3-1.7c0-0.7,0-1.3,0.1-1.8c0.1-0.5,0.2-0.9,0.3-1.3h11.6l0.2,1.4H139z
				 M132.5,100.5c0,0.1-0.1,0.3-0.1,0.6c0,0.3-0.1,0.6-0.1,1c0,0.8,0.3,1.4,0.8,1.9c0.5,0.5,1.2,0.7,2.2,0.7c0.4,0,0.8,0,1.2-0.1
				c0.4-0.1,0.7-0.2,0.9-0.4c0.3-0.2,0.5-0.4,0.6-0.7c0.1-0.3,0.2-0.7,0.2-1.1c0-0.4-0.1-0.8-0.2-1.1c-0.1-0.3-0.3-0.6-0.4-0.8
				H132.5z"/>
			<path fill="#FFFFFF" d="M132.3,109.3c0,0.6,0.1,1,0.2,1.3c0.2,0.3,0.4,0.4,0.7,0.4c0.4,0,0.6-0.1,0.8-0.4
				c0.2-0.3,0.4-0.7,0.7-1.4c0.1-0.3,0.2-0.6,0.4-0.9c0.1-0.3,0.3-0.5,0.5-0.7c0.2-0.2,0.4-0.4,0.6-0.5c0.2-0.1,0.6-0.2,0.9-0.2
				c0.7,0,1.3,0.3,1.7,0.8c0.4,0.5,0.6,1.2,0.6,2.2c0,0.2,0,0.5,0,0.7c0,0.2-0.1,0.4-0.1,0.6c0,0.2-0.1,0.4-0.1,0.5
				c0,0.1-0.1,0.3-0.1,0.3l-1.2-0.3c0.1-0.2,0.2-0.4,0.3-0.7c0.1-0.3,0.1-0.7,0.1-1.2c0-0.4-0.1-0.8-0.2-1.1
				c-0.2-0.3-0.4-0.5-0.8-0.5c-0.2,0-0.3,0-0.5,0.1c-0.1,0.1-0.3,0.2-0.4,0.3c-0.1,0.1-0.2,0.3-0.3,0.5c-0.1,0.2-0.2,0.5-0.3,0.7
				c-0.1,0.4-0.3,0.7-0.4,1c-0.1,0.3-0.3,0.6-0.5,0.8c-0.2,0.2-0.4,0.4-0.7,0.5c-0.3,0.1-0.6,0.2-1,0.2c-0.7,0-1.3-0.3-1.7-0.8
				c-0.4-0.6-0.6-1.3-0.6-2.4c0-0.7,0.1-1.3,0.2-1.7c0.1-0.4,0.2-0.7,0.3-0.8l1.2,0.3c-0.1,0.2-0.2,0.4-0.3,0.8
				C132.4,108.2,132.3,108.7,132.3,109.3z"/>
		</g>
	</g>
</g>
</svg>
