<?xml version="1.0" encoding="utf-8"?>
<!-- Generator: Adobe Illustrator 18.1.1, SVG Export Plug-In . SVG Version: 6.00 Build 0)  -->
<svg version="1.1" id="Layer_1" xmlns="http://www.w3.org/2000/svg" xmlns:xlink="http://www.w3.org/1999/xlink" x="0px" y="0px"
	 viewBox="0 0 601.8 138.8" enable-background="new 0 0 601.8 138.8" xml:space="preserve">
<g>
	<g>
		<path fill="#FFFFFF" d="M85.5,89.7c0,7.3-1.1,14-3.2,19.9c-2.2,6-5.3,11-9.4,15.2c-4.1,4.2-9.1,7.4-15,9.7
			c-5.9,2.3-12.7,3.4-20.3,3.4c-3.1,0-6.4-0.1-9.9-0.4c-3.4-0.3-6.8-0.7-10.1-1.1c-3.3-0.5-6.5-1-9.5-1.7c-3-0.6-5.7-1.3-8-2V4.2
			L26.1,0v45.8c2.9-1.3,5.9-2.3,9.1-3c3.1-0.7,6.5-1,10.1-1c6.5,0,12.3,1.1,17.3,3.4c5,2.3,9.2,5.5,12.6,9.7c3.4,4.2,6,9.2,7.7,15.1
			C84.7,75.9,85.5,82.5,85.5,89.7z M58.9,89c0-16.8-6.2-25.2-18.5-25.2c-2.7,0-5.3,0.4-8,1.1c-2.6,0.7-4.8,1.6-6.4,2.6v47.4
			c1.3,0.2,2.9,0.4,4.9,0.6c2,0.2,4.1,0.3,6.5,0.3c7.1,0,12.5-2.4,16.1-7.3C57.1,103.6,58.9,97.1,58.9,89z"/>
		<path fill="#FFFFFF" d="M129.3,137.5c-7.6-0.1-13.7-0.9-18.5-2.4c-4.7-1.5-8.5-3.6-11.2-6.4c-2.7-2.7-4.6-6.1-5.6-10
			c-1-3.9-1.5-8.3-1.5-13.2V4.2L118.6,0v100.2c0,2.3,0.2,4.4,0.5,6.3c0.4,1.9,1,3.4,2,4.7c1,1.3,2.4,2.3,4.3,3.2
			c1.9,0.8,4.4,1.3,7.5,1.6L129.3,137.5z"/>
		<path fill="#FFFFFF" d="M213.2,132.6c-4.4,1.3-10.1,2.5-17.1,3.6c-7,1.1-14.3,1.7-22,1.7c-7.8,0-14.3-1-19.5-3.1
			c-5.2-2.1-9.3-5-12.3-8.8c-3-3.8-5.2-8.3-6.5-13.6c-1.3-5.2-1.9-11-1.9-17.3V43.7h26.1v48.1c0,8.4,1.1,14.5,3.3,18.2
			c2.2,3.7,6.4,5.6,12.4,5.6c1.9,0,3.8-0.1,6-0.3c2.1-0.2,4-0.4,5.6-0.6v-71h26.1V132.6z"/>
		<path fill="#FFFFFF" d="M220.2,90.4c0-8.2,1.3-15.3,3.8-21.4c2.5-6.1,5.8-11.2,9.9-15.3c4.1-4.1,8.8-7.2,14.1-9.3
			c5.3-2.1,10.8-3.1,16.4-3.1c13.1,0,23.4,4,31,12c7.6,8,11.4,19.7,11.4,35.2c0,1.5-0.1,3.2-0.2,5c-0.1,1.8-0.2,3.4-0.3,4.8H247
			c0.6,5.4,3.1,9.6,7.5,12.8c4.4,3.2,10.4,4.7,17.8,4.7c4.8,0,9.5-0.4,14.1-1.3c4.6-0.9,8.4-1.9,11.3-3.2l3.5,21.2
			c-1.4,0.7-3.3,1.4-5.6,2.1c-2.3,0.7-4.9,1.3-7.8,1.8c-2.9,0.5-5.9,1-9.2,1.3c-3.3,0.4-6.5,0.5-9.8,0.5c-8.3,0-15.5-1.2-21.6-3.7
			c-6.1-2.4-11.2-5.8-15.2-10.1c-4-4.2-7-9.3-8.9-15.1C221.2,103.5,220.2,97.2,220.2,90.4z M281.4,80.5c-0.1-2.2-0.5-4.4-1.1-6.5
			c-0.6-2.1-1.6-4-3-5.6c-1.3-1.6-3-3-5.1-4c-2-1-4.6-1.6-7.6-1.6c-2.9,0-5.4,0.5-7.5,1.5c-2.1,1-3.8,2.3-5.2,3.9
			c-1.4,1.6-2.5,3.5-3.2,5.7c-0.8,2.2-1.3,4.3-1.7,6.6H281.4z"/>
		<path fill="#FFFFFF" d="M342.7,137.5c-10-0.2-17.1-2.4-21.3-6.5c-4.2-4.1-6.3-10.4-6.3-19.1V2.8L331.3,0v109.3
			c0,2.7,0.2,4.9,0.7,6.6c0.5,1.8,1.2,3.2,2.3,4.2c1.1,1.1,2.4,1.8,4.2,2.4c1.7,0.5,3.9,1,6.5,1.3L342.7,137.5z"/>
		<path fill="#FFFFFF" d="M358.1,28.3c-2.9,0-5.4-1-7.4-2.9c-2-1.9-3.1-4.5-3.1-7.8c0-3.3,1-5.9,3.1-7.8c2-1.9,4.5-2.9,7.4-2.9
			c2.9,0,5.4,1,7.4,2.9c2,1.9,3.1,4.5,3.1,7.8c0,3.3-1,5.9-3.1,7.8C363.5,27.4,361,28.3,358.1,28.3z M366.3,135.7H350v-91h16.3
			V135.7z"/>
		<path fill="#FFFFFF" d="M381.1,47.4c3.7-0.9,8.7-1.9,14.9-3c6.2-1,13.3-1.6,21.3-1.6c7.2,0,13.2,1,18,3.1c4.8,2,8.6,4.9,11.5,8.6
			c2.9,3.7,4.9,8.1,6,13.2c1.2,5.1,1.7,10.8,1.7,17v51.1h-16.3V88.2c0-5.6-0.4-10.4-1.1-14.3c-0.8-4-2-7.2-3.8-9.6
			c-1.8-2.5-4.1-4.2-7-5.3c-2.9-1.1-6.5-1.7-10.8-1.7c-1.7,0-3.6,0.1-5.4,0.2c-1.9,0.1-3.6,0.3-5.3,0.4c-1.7,0.2-3.2,0.4-4.5,0.6
			c-1.3,0.2-2.3,0.4-2.9,0.5v76.8h-16.3V47.4z"/>
		<path fill="#FFFFFF" d="M463.4,90.4c0-8,1.2-15.1,3.5-21.1c2.3-6,5.4-11,9.3-15c3.8-4,8.3-6.9,13.3-8.9c5-2,10.1-3,15.4-3
			c12.2,0,21.6,3.8,28.2,11.5c6.5,7.6,9.8,19.3,9.8,34.9c0,0.7,0,1.6,0,2.7c0,1.1-0.1,2.1-0.2,3.1h-62.3c0.7,9.4,3.4,16.6,8.2,21.5
			c4.8,4.9,12.2,7.3,22.4,7.3c5.7,0,10.5-0.5,14.4-1.5c3.9-1,6.8-2,8.8-2.9l2.3,13.6c-2,1.1-5.5,2.2-10.4,3.3
			c-5,1.2-10.6,1.7-16.9,1.7c-7.9,0-14.8-1.2-20.6-3.6c-5.8-2.4-10.5-5.7-14.3-9.9c-3.7-4.2-6.5-9.2-8.3-15
			C464.3,103.6,463.4,97.3,463.4,90.4z M525.8,81.5c0.1-7.3-1.7-13.4-5.5-18.1c-3.8-4.7-9-7.1-15.7-7.1c-3.7,0-7,0.7-9.9,2.2
			c-2.9,1.5-5.3,3.4-7.3,5.7c-2,2.3-3.5,5-4.6,8c-1.1,3-1.8,6.1-2.2,9.3H525.8z"/>
	</g>
	<g>
		<path fill="#FFFFFF" d="M550.5,47.2c0.1-3.7,0.9-6.4,2.4-8c1.5-1.6,3.9-2.3,7.1-2.3h40.7l1,6.1H561c-1,0-1.8,0.1-2.5,0.3
			c-0.7,0.2-1.2,0.5-1.6,0.8c-0.4,0.4-0.7,0.9-0.9,1.6c-0.2,0.7-0.4,1.5-0.5,2.4L550.5,47.2z"/>
		<path fill="#FFFFFF" d="M585.9,62.5c0,2.4-0.3,4.5-1,6.2c-0.6,1.7-1.5,3-2.7,4c-1.2,1-2.5,1.7-4.1,2.2c-1.6,0.4-3.3,0.7-5.2,0.7
			h-21.2c-0.1-0.5-0.2-1.3-0.4-2.2c-0.2-0.9-0.3-2-0.4-3.2c-0.1-1.2-0.2-2.4-0.4-3.8c-0.1-1.4-0.2-2.7-0.2-4.1
			c0-1.9,0.2-3.7,0.6-5.3c0.4-1.6,1-3,1.9-4.2c0.9-1.2,2-2.1,3.4-2.7c1.4-0.7,3.1-1,5-1c1.9,0,3.5,0.4,4.8,1.1
			c1.3,0.8,2.4,1.8,3.3,3.1c0.8,1.3,1.4,2.8,1.8,4.6c0.4,1.7,0.6,3.6,0.6,5.5c0,0.6,0,1.2-0.1,1.9c-0.1,0.6-0.2,1.3-0.3,1.9
			c-0.1,0.6-0.2,1.1-0.3,1.5c-0.1,0.4-0.2,0.7-0.2,0.9h1.7c1,0,2-0.1,3-0.3c1-0.2,1.9-0.6,2.6-1.2c0.8-0.6,1.4-1.3,1.8-2.3
			c0.5-1,0.7-2.2,0.7-3.8c0-2-0.1-3.8-0.4-5.2c-0.3-1.5-0.6-2.6-0.9-3.4l5-0.7c0.3,0.8,0.7,2.1,1,3.9
			C585.8,58.4,585.9,60.4,585.9,62.5z M555.6,63c0,1.4,0,2.7,0.1,3.8c0.1,1.1,0.2,2,0.4,2.8h10.1c0.2-0.4,0.4-1.1,0.6-2.1
			c0.2-1,0.2-2.2,0.2-3.6c0-0.9-0.1-1.9-0.2-2.9c-0.1-1-0.4-2-0.8-2.8c-0.4-0.8-1-1.6-1.7-2.1c-0.7-0.6-1.7-0.9-2.8-0.9
			c-2.2,0-3.7,0.7-4.5,2.1C556,58.7,555.6,60.6,555.6,63z"/>
		<path fill="#FFFFFF" d="M583.6,88.4c0.5,0.7,1,1.9,1.5,3.4c0.5,1.5,0.8,3.2,0.8,5.2c0,2.4-0.4,4.6-1.3,6.5
			c-0.9,1.9-2.1,3.5-3.7,4.8c-1.6,1.3-3.4,2.3-5.6,3c-2.2,0.7-4.6,1-7.2,1c-2.7,0-5.2-0.4-7.4-1.2c-2.2-0.8-4.1-2-5.6-3.4
			c-1.5-1.5-2.7-3.3-3.5-5.3c-0.8-2.1-1.2-4.4-1.2-7c0-2.8,0.2-5.3,0.6-7.5c0.4-2.2,0.8-4,1.2-5.4h48.6l1,6.1H583.6z M556.5,88.4
			c-0.2,0.6-0.3,1.5-0.5,2.6c-0.2,1.1-0.2,2.5-0.2,4.1c0,3.3,1.1,5.9,3.2,7.8c2.2,2,5.2,2.9,9.2,2.9c1.7,0,3.4-0.2,4.9-0.5
			c1.5-0.4,2.8-0.9,4-1.7c1.1-0.8,2-1.8,2.6-3c0.6-1.2,0.9-2.7,0.9-4.5c0-1.7-0.3-3.2-0.8-4.6c-0.6-1.4-1.1-2.5-1.8-3.2H556.5z"/>
		<path fill="#FFFFFF" d="M555.6,125.4c0,2.5,0.3,4.3,1,5.5c0.7,1.2,1.7,1.8,3.1,1.8c1.5,0,2.7-0.6,3.5-1.8c0.9-1.2,1.8-3.1,2.9-5.8
			c0.5-1.3,1-2.6,1.6-3.7c0.5-1.2,1.2-2.2,1.9-3.1c0.7-0.9,1.6-1.6,2.7-2.1c1-0.5,2.3-0.8,3.8-0.8c3,0,5.4,1.1,7.1,3.3
			c1.8,2.2,2.6,5.2,2.6,9.1c0,1-0.1,1.9-0.2,2.9c-0.1,1-0.2,1.8-0.4,2.7c-0.2,0.8-0.3,1.6-0.5,2.2c-0.2,0.6-0.3,1.1-0.5,1.5
			l-5.2-1.1c0.3-0.7,0.7-1.7,1.1-3.1c0.4-1.4,0.5-3.1,0.5-5c0-1.7-0.3-3.2-1-4.4c-0.7-1.3-1.7-1.9-3.2-1.9c-0.7,0-1.4,0.1-2,0.4
			c-0.6,0.3-1.1,0.7-1.5,1.3c-0.5,0.6-0.9,1.3-1.3,2.2c-0.4,0.9-0.8,1.9-1.2,3.1c-0.6,1.6-1.2,3-1.8,4.3c-0.6,1.3-1.3,2.3-2.1,3.2
			c-0.8,0.9-1.7,1.6-2.8,2.1c-1.1,0.5-2.5,0.7-4.1,0.7c-3.1,0-5.5-1.2-7.1-3.5c-1.6-2.3-2.4-5.6-2.4-9.9c0-3,0.3-5.4,0.8-7
			c0.5-1.7,0.9-2.8,1.1-3.5l5.2,1.1c-0.3,0.7-0.6,1.8-1.2,3.3C555.8,120.8,555.6,122.8,555.6,125.4z"/>
	</g>
</g>
</svg>
