<?xml version="1.0" encoding="utf-8"?>
<!-- Generator: Adobe Illustrator 18.1.1, SVG Export Plug-In . SVG Version: 6.00 Build 0)  -->
<svg version="1.1" id="Layer_1" xmlns="http://www.w3.org/2000/svg" xmlns:xlink="http://www.w3.org/1999/xlink" x="0px" y="0px"
	 viewBox="0 0 468.1 67.5" enable-background="new 0 0 468.1 67.5" xml:space="preserve">
<g>
	<g>
		<polygon fill="#FFFFFF" points="43.2,67.5 0,13.9 6.7,0 76.5,0 68.4,16.8 24.4,17.1 51.1,50.6 		"/>
	</g>
	<g>
		<polygon fill="#FFFFFF" points="147.1,67.5 70.9,67.5 78.6,51.9 128,51.9 96.6,16.8 104.2,1.5 153.5,54.7 		"/>
	</g>
	<g>
		<polygon fill="#50C7EB" points="66.3,67.5 47.7,67.5 81.5,0 100.8,0 		"/>
	</g>
</g>
<g>
	<g>
		<path fill="#FFFFFF" d="M223.7,43.4c0,3.5-0.5,6.6-1.5,9.4c-1,2.8-2.5,5.2-4.4,7.2c-1.9,2-4.3,3.5-7.1,4.6c-2.8,1.1-6,1.6-9.6,1.6
			c-1.5,0-3.1-0.1-4.7-0.2c-1.6-0.1-3.2-0.3-4.8-0.5c-1.6-0.2-3.1-0.5-4.5-0.8c-1.4-0.3-2.7-0.6-3.8-1V2.9l12.3-2v21.7
			c1.4-0.6,2.8-1.1,4.3-1.4c1.5-0.3,3.1-0.5,4.8-0.5c3.1,0,5.8,0.5,8.2,1.6c2.4,1.1,4.4,2.6,6,4.6c1.6,2,2.8,4.4,3.6,7.2
			C223.3,36.8,223.7,39.9,223.7,43.4z M211.1,43c0-8-2.9-11.9-8.8-11.9c-1.3,0-2.5,0.2-3.8,0.5c-1.2,0.3-2.3,0.7-3,1.2v22.4
			c0.6,0.1,1.4,0.2,2.3,0.3c0.9,0.1,2,0.1,3.1,0.1c3.4,0,5.9-1.2,7.6-3.5C210.2,49.9,211.1,46.8,211.1,43z"/>
		<path fill="#FFFFFF" d="M244.4,66c-3.6-0.1-6.5-0.4-8.7-1.2c-2.2-0.7-4-1.7-5.3-3c-1.3-1.3-2.2-2.9-2.6-4.7
			c-0.5-1.9-0.7-3.9-0.7-6.3v-48l12.3-2v47.5c0,1.1,0.1,2.1,0.2,3c0.2,0.9,0.5,1.6,1,2.2c0.5,0.6,1.1,1.1,2,1.5
			c0.9,0.4,2.1,0.6,3.6,0.7L244.4,66z"/>
		<path fill="#FFFFFF" d="M284.1,63.7c-2.1,0.6-4.8,1.2-8.1,1.7c-3.3,0.5-6.8,0.8-10.4,0.8c-3.7,0-6.8-0.5-9.2-1.5
			c-2.5-1-4.4-2.4-5.8-4.2c-1.4-1.8-2.5-3.9-3.1-6.4c-0.6-2.5-0.9-5.2-0.9-8.2V21.6h12.3v22.8c0,4,0.5,6.8,1.6,8.6
			c1,1.8,3,2.7,5.9,2.7c0.9,0,1.8,0,2.8-0.1c1-0.1,1.9-0.2,2.6-0.3V21.6h12.3V63.7z"/>
		<path fill="#FFFFFF" d="M287.4,43.7c0-3.9,0.6-7.2,1.8-10.1c1.2-2.9,2.7-5.3,4.7-7.2c1.9-1.9,4.2-3.4,6.7-4.4
			c2.5-1,5.1-1.5,7.7-1.5c6.2,0,11.1,1.9,14.7,5.7c3.6,3.8,5.4,9.3,5.4,16.7c0,0.7,0,1.5-0.1,2.4c-0.1,0.9-0.1,1.6-0.2,2.3h-28
			c0.3,2.5,1.5,4.6,3.6,6c2.1,1.5,4.9,2.2,8.4,2.2c2.3,0,4.5-0.2,6.7-0.6c2.2-0.4,4-0.9,5.3-1.5l1.7,10c-0.7,0.3-1.5,0.7-2.7,1
			c-1.1,0.3-2.3,0.6-3.7,0.9c-1.4,0.2-2.8,0.5-4.3,0.6c-1.5,0.2-3.1,0.2-4.6,0.2c-3.9,0-7.3-0.6-10.2-1.7c-2.9-1.2-5.3-2.7-7.2-4.8
			c-1.9-2-3.3-4.4-4.2-7.2C287.9,49.9,287.4,46.9,287.4,43.7z M316.4,39c-0.1-1-0.2-2.1-0.5-3.1c-0.3-1-0.8-1.9-1.4-2.6
			c-0.6-0.8-1.4-1.4-2.4-1.9c-1-0.5-2.2-0.7-3.6-0.7c-1.4,0-2.6,0.2-3.6,0.7c-1,0.5-1.8,1.1-2.5,1.9c-0.7,0.8-1.2,1.7-1.5,2.7
			c-0.4,1-0.6,2.1-0.8,3.1H316.4z"/>
		<path fill="#FFFFFF" d="M345.4,66c-4.7-0.1-8.1-1.1-10.1-3.1c-2-1.9-3-4.9-3-9V2.2l7.7-1.3v51.8c0,1.3,0.1,2.3,0.3,3.1
			c0.2,0.8,0.6,1.5,1.1,2c0.5,0.5,1.2,0.9,2,1.1c0.8,0.2,1.8,0.5,3.1,0.6L345.4,66z"/>
		<path fill="#FFFFFF" d="M352.7,14.3c-1.4,0-2.6-0.5-3.5-1.4c-1-0.9-1.4-2.1-1.4-3.7c0-1.5,0.5-2.8,1.4-3.7c1-0.9,2.1-1.4,3.5-1.4
			c1.4,0,2.6,0.5,3.5,1.4c1,0.9,1.4,2.1,1.4,3.7c0,1.5-0.5,2.8-1.4,3.7C355.3,13.8,354.1,14.3,352.7,14.3z M356.6,65.1h-7.7V22.1
			h7.7V65.1z"/>
		<path fill="#FFFFFF" d="M363.6,23.3c1.8-0.4,4.1-0.9,7-1.4c2.9-0.5,6.3-0.7,10.1-0.7c3.4,0,6.3,0.5,8.5,1.4c2.3,1,4.1,2.3,5.4,4.1
			c1.4,1.7,2.3,3.8,2.9,6.3c0.6,2.4,0.8,5.1,0.8,8v24.2h-7.7V42.6c0-2.6-0.2-4.9-0.5-6.8c-0.4-1.9-1-3.4-1.8-4.6
			c-0.8-1.2-1.9-2-3.3-2.5c-1.4-0.5-3.1-0.8-5.1-0.8c-0.8,0-1.7,0-2.6,0.1c-0.9,0.1-1.7,0.1-2.5,0.2c-0.8,0.1-1.5,0.2-2.2,0.3
			c-0.6,0.1-1.1,0.2-1.4,0.2v36.4h-7.7V23.3z"/>
		<path fill="#FFFFFF" d="M402.6,43.7c0-3.8,0.6-7.1,1.7-10c1.1-2.8,2.6-5.2,4.4-7.1c1.8-1.9,3.9-3.3,6.3-4.2
			c2.4-0.9,4.8-1.4,7.3-1.4c5.8,0,10.2,1.8,13.3,5.4c3.1,3.6,4.6,9.1,4.6,16.5c0,0.3,0,0.8,0,1.3c0,0.5,0,1-0.1,1.5h-29.5
			c0.3,4.5,1.6,7.9,3.9,10.2c2.3,2.3,5.8,3.5,10.6,3.5c2.7,0,5-0.2,6.8-0.7c1.8-0.5,3.2-0.9,4.2-1.4l1.1,6.5c-0.9,0.5-2.6,1-4.9,1.6
			c-2.3,0.5-5,0.8-8,0.8c-3.8,0-7-0.6-9.7-1.7c-2.7-1.1-5-2.7-6.8-4.7c-1.8-2-3.1-4.3-3.9-7.1C403,49.9,402.6,46.9,402.6,43.7z
			 M432.1,39.5c0.1-3.5-0.8-6.3-2.6-8.6c-1.8-2.2-4.3-3.4-7.4-3.4c-1.8,0-3.3,0.3-4.7,1c-1.4,0.7-2.5,1.6-3.4,2.7
			c-0.9,1.1-1.7,2.4-2.2,3.8c-0.5,1.4-0.9,2.9-1,4.4H432.1z"/>
	</g>
	<g>
		<path fill="#FFFFFF" d="M443.9,23.2c0-1.8,0.4-3,1.1-3.8c0.7-0.7,1.8-1.1,3.4-1.1h19.3l0.5,2.9h-19.3c-0.5,0-0.9,0-1.2,0.1
			c-0.3,0.1-0.6,0.2-0.7,0.4c-0.2,0.2-0.3,0.4-0.4,0.7c-0.1,0.3-0.2,0.7-0.2,1.1L443.9,23.2z"/>
		<path fill="#FFFFFF" d="M460.6,30.5c0,1.2-0.2,2.1-0.4,2.9c-0.3,0.8-0.7,1.4-1.3,1.9c-0.5,0.5-1.2,0.8-1.9,1
			c-0.8,0.2-1.6,0.3-2.5,0.3h-10c0-0.2-0.1-0.6-0.2-1c-0.1-0.4-0.1-0.9-0.2-1.5c-0.1-0.6-0.1-1.2-0.2-1.8c0-0.6-0.1-1.3-0.1-1.9
			c0-0.9,0.1-1.7,0.3-2.5c0.2-0.8,0.5-1.4,0.9-2c0.4-0.6,0.9-1,1.6-1.3c0.7-0.3,1.5-0.5,2.4-0.5c0.9,0,1.6,0.2,2.3,0.5
			c0.6,0.4,1.2,0.8,1.5,1.5c0.4,0.6,0.7,1.3,0.9,2.2c0.2,0.8,0.3,1.7,0.3,2.6c0,0.3,0,0.6,0,0.9c0,0.3-0.1,0.6-0.1,0.9
			c-0.1,0.3-0.1,0.5-0.1,0.7c0,0.2-0.1,0.3-0.1,0.4h0.8c0.5,0,0.9-0.1,1.4-0.2c0.5-0.1,0.9-0.3,1.2-0.6c0.4-0.3,0.7-0.6,0.9-1.1
			c0.2-0.5,0.3-1.1,0.3-1.8c0-0.9-0.1-1.8-0.2-2.5c-0.1-0.7-0.3-1.2-0.4-1.6l2.4-0.3c0.2,0.4,0.3,1,0.5,1.9
			C460.5,28.5,460.6,29.5,460.6,30.5z M446.2,30.7c0,0.7,0,1.3,0,1.8c0,0.5,0.1,1,0.2,1.3h4.8c0.1-0.2,0.2-0.5,0.3-1
			c0.1-0.5,0.1-1,0.1-1.7c0-0.4,0-0.9-0.1-1.4c-0.1-0.5-0.2-0.9-0.4-1.3c-0.2-0.4-0.5-0.7-0.8-1c-0.3-0.3-0.8-0.4-1.3-0.4
			c-1,0-1.7,0.3-2.1,1C446.4,28.7,446.2,29.6,446.2,30.7z"/>
		<path fill="#FFFFFF" d="M459.5,42.7c0.2,0.3,0.5,0.9,0.7,1.6c0.2,0.7,0.4,1.5,0.4,2.5c0,1.2-0.2,2.2-0.6,3.1
			c-0.4,0.9-1,1.7-1.7,2.3c-0.7,0.6-1.6,1.1-2.7,1.4c-1,0.3-2.2,0.5-3.4,0.5c-1.3,0-2.5-0.2-3.5-0.6c-1-0.4-1.9-0.9-2.6-1.6
			c-0.7-0.7-1.3-1.5-1.7-2.5c-0.4-1-0.6-2.1-0.6-3.3c0-1.3,0.1-2.5,0.3-3.5c0.2-1,0.4-1.9,0.6-2.5h23l0.5,2.9H459.5z M446.7,42.7
			c-0.1,0.3-0.2,0.7-0.2,1.2c-0.1,0.5-0.1,1.2-0.1,2c0,1.5,0.5,2.8,1.5,3.7c1,0.9,2.5,1.4,4.3,1.4c0.8,0,1.6-0.1,2.3-0.2
			c0.7-0.2,1.3-0.4,1.9-0.8c0.5-0.4,0.9-0.8,1.2-1.4c0.3-0.6,0.4-1.3,0.4-2.1c0-0.8-0.1-1.5-0.4-2.2c-0.3-0.7-0.5-1.2-0.8-1.5H446.7
			z"/>
		<path fill="#FFFFFF" d="M446.2,60.2c0,1.2,0.2,2,0.5,2.6c0.3,0.6,0.8,0.8,1.5,0.8c0.7,0,1.3-0.3,1.7-0.8c0.4-0.6,0.9-1.5,1.4-2.8
			c0.2-0.6,0.5-1.2,0.8-1.8c0.3-0.6,0.6-1.1,0.9-1.5c0.4-0.4,0.8-0.7,1.3-1c0.5-0.2,1.1-0.4,1.8-0.4c1.4,0,2.5,0.5,3.4,1.6
			c0.8,1,1.2,2.5,1.2,4.3c0,0.5,0,0.9-0.1,1.4c0,0.5-0.1,0.9-0.2,1.3c-0.1,0.4-0.1,0.7-0.2,1c-0.1,0.3-0.2,0.5-0.2,0.7l-2.5-0.5
			c0.2-0.3,0.3-0.8,0.5-1.4c0.2-0.7,0.3-1.5,0.3-2.4c0-0.8-0.2-1.5-0.5-2.1c-0.3-0.6-0.8-0.9-1.5-0.9c-0.3,0-0.7,0.1-0.9,0.2
			c-0.3,0.1-0.5,0.3-0.7,0.6c-0.2,0.3-0.4,0.6-0.6,1c-0.2,0.4-0.4,0.9-0.6,1.5c-0.3,0.8-0.6,1.4-0.8,2c-0.3,0.6-0.6,1.1-1,1.5
			c-0.4,0.4-0.8,0.7-1.3,1c-0.5,0.2-1.2,0.3-1.9,0.3c-1.5,0-2.6-0.5-3.4-1.7c-0.8-1.1-1.1-2.7-1.1-4.7c0-1.4,0.1-2.5,0.4-3.3
			c0.2-0.8,0.4-1.3,0.5-1.6l2.5,0.5c-0.1,0.3-0.3,0.9-0.6,1.6C446.4,58.1,446.2,59,446.2,60.2z"/>
	</g>
</g>
</svg>
